<svg width="16" height="32" viewBox="0 0 16 32" fill="none" xmlns="http://www.w3.org/2000/svg">
<path d="M8.00001 16.4491L7.03421 17.4654V29.9398C7.03421 30.6043 7.23477 31.2481 7.60242 31.7903C7.79197 32.0699 8.20804 32.0699 8.39765 31.7903C8.7653 31.2481 8.96587 30.6043 8.96587 29.9398V17.4654L8.00001 16.4491Z" fill="#004D60"/>
<path d="M7.03421 13.6499V17.4654C7.35196 17.4967 7.67408 17.4654 8.00001 17.4654C8.32593 17.4654 8.64805 17.4967 8.9658 17.4654V13.6499H7.03421Z" fill="#003B49"/>
<path d="M8 7.62939e-06V15.5815C12.3027 15.5815 15.7907 12.0934 15.7907 7.79075C15.7907 3.48807 12.3027 7.62939e-06 8 7.62939e-06Z" fill="#CC3245"/>
<path d="M13.8592 7.79075C13.8592 3.48807 11.2359 7.62939e-06 8 7.62939e-06C3.69732 7.62939e-06 0.209259 3.48807 0.209259 7.79075C0.209259 12.0934 3.69732 15.5815 8 15.5815C11.2359 15.5815 13.8592 12.0934 13.8592 7.79075Z" fill="#FF3E3A"/>
</svg>
